<svg width="378" height="70" viewBox="0 0 378 70" fill="none" xmlns="http://www.w3.org/2000/svg">
<path d="M79.12 58.49C77.2533 58.49 76.32 57.51 76.32 55.55V26.36C76.32 24.4467 77.23 23.49 79.05 23.49C80.9167 23.49 81.85 24.4467 81.85 26.36V29.79C82.97 27.6433 84.5567 26.0333 86.61 24.96C88.6633 23.8867 90.9733 23.35 93.54 23.35C101.613 23.35 105.65 27.83 105.65 36.79V55.55C105.65 57.51 104.717 58.49 102.85 58.49C100.937 58.49 99.98 57.51 99.98 55.55V37.14C99.98 33.9667 99.35 31.6567 98.09 30.21C96.8767 28.7167 94.9167 27.97 92.21 27.97C89.0833 27.97 86.5867 28.95 84.72 30.91C82.9 32.8233 81.99 35.39 81.99 38.61V55.55C81.99 57.51 81.0333 58.49 79.12 58.49ZM131.435 58.63C126.068 58.63 121.822 57.0667 118.695 53.94C115.568 50.7667 114.005 46.4733 114.005 41.06C114.005 37.56 114.705 34.48 116.105 31.82C117.505 29.1133 119.418 27.0367 121.845 25.59C124.318 24.0967 127.165 23.35 130.385 23.35C135.005 23.35 138.622 24.8433 141.235 27.83C143.848 30.77 145.155 34.83 145.155 40.01C145.155 41.4567 144.338 42.18 142.705 42.18H119.535C119.722 46.0533 120.842 49.0167 122.895 51.07C124.948 53.0767 127.795 54.08 131.435 54.08C132.975 54.08 134.538 53.8933 136.125 53.52C137.712 53.1 139.252 52.3767 140.745 51.35C141.818 50.65 142.705 50.51 143.405 50.93C144.152 51.35 144.525 52.0033 144.525 52.89C144.572 53.73 144.105 54.4767 143.125 55.13C141.585 56.25 139.742 57.1133 137.595 57.72C135.495 58.3267 133.442 58.63 131.435 58.63ZM130.525 27.55C127.305 27.55 124.762 28.5533 122.895 30.56C121.028 32.5667 119.932 35.2033 119.605 38.47H140.255C140.115 35.0167 139.205 32.3333 137.525 30.42C135.892 28.5067 133.558 27.55 130.525 27.55ZM164.711 58.49C162.984 58.49 161.794 57.6033 161.141 55.83L150.711 27.48C150.244 26.2667 150.244 25.31 150.711 24.61C151.224 23.8633 152.018 23.49 153.091 23.49C153.791 23.49 154.351 23.6533 154.771 23.98C155.238 24.3067 155.611 24.9133 155.891 25.8L164.851 51.35L174.091 25.8C174.651 24.26 175.701 23.49 177.241 23.49C178.734 23.49 179.761 24.26 180.321 25.8L189.421 51.42L198.521 25.66C198.848 24.82 199.221 24.26 199.641 23.98C200.108 23.6533 200.691 23.49 201.391 23.49C202.511 23.49 203.234 23.91 203.561 24.75C203.888 25.5433 203.841 26.4533 203.421 27.48L192.991 55.83C192.291 57.6033 191.101 58.49 189.421 58.49C187.694 58.49 186.528 57.6033 185.921 55.83L177.101 31.61L168.281 55.83C167.628 57.6033 166.438 58.49 164.711 58.49ZM222.605 58.63C220.505 58.63 218.381 58.3733 216.235 57.86C214.135 57.3 212.175 56.4133 210.355 55.2C209.515 54.6867 209.095 54.0333 209.095 53.24C209.141 52.4 209.468 51.7467 210.075 51.28C210.681 50.8133 211.451 50.8133 212.385 51.28C214.205 52.4 215.955 53.1933 217.635 53.66C219.361 54.08 221.065 54.29 222.745 54.29C225.405 54.29 227.411 53.8 228.765 52.82C230.118 51.84 230.795 50.51 230.795 48.83C230.795 47.5233 230.351 46.4967 229.465 45.75C228.578 44.9567 227.178 44.35 225.265 43.93L218.895 42.53C213.108 41.27 210.215 38.2833 210.215 33.57C210.215 30.49 211.428 28.0167 213.855 26.15C216.328 24.2833 219.548 23.35 223.515 23.35C225.521 23.35 227.458 23.63 229.325 24.19C231.191 24.7033 232.871 25.5433 234.365 26.71C235.158 27.27 235.508 27.9467 235.415 28.74C235.321 29.5333 234.948 30.1633 234.295 30.63C233.688 31.05 232.941 30.98 232.055 30.42C230.655 29.4867 229.231 28.81 227.785 28.39C226.338 27.9233 224.915 27.69 223.515 27.69C220.901 27.69 218.918 28.2033 217.565 29.23C216.211 30.2567 215.535 31.61 215.535 33.29C215.535 35.9033 217.261 37.5833 220.715 38.33L227.085 39.66C230.071 40.3133 232.335 41.3633 233.875 42.81C235.415 44.21 236.185 46.1233 236.185 48.55C236.185 51.6767 234.948 54.15 232.475 55.97C230.001 57.7433 226.711 58.63 222.605 58.63Z" fill="#FF3E30"/>
<path d="M249.446 58.49C247.579 58.49 246.646 57.51 246.646 55.55V28.39H242.166C240.533 28.39 239.716 27.6433 239.716 26.15C239.716 24.7033 240.533 23.98 242.166 23.98H246.646V22.79C246.646 14.0633 250.916 9.32666 259.456 8.58L261.486 8.37C262.326 8.32333 262.933 8.51 263.306 8.93C263.679 9.35 263.866 9.86333 263.866 10.47C263.913 11.03 263.773 11.5433 263.446 12.01C263.119 12.4767 262.653 12.7333 262.046 12.78L260.436 12.92C257.589 13.1533 255.513 14.0167 254.206 15.51C252.946 17.0033 252.316 19.1967 252.316 22.09V23.98H259.876C261.509 23.98 262.326 24.7033 262.326 26.15C262.326 27.6433 261.509 28.39 259.876 28.39H252.316V55.55C252.316 57.51 251.359 58.49 249.446 58.49ZM282.509 58.63C277.143 58.63 272.896 57.0667 269.769 53.94C266.643 50.7667 265.079 46.4733 265.079 41.06C265.079 37.56 265.779 34.48 267.179 31.82C268.579 29.1133 270.493 27.0367 272.919 25.59C275.393 24.0967 278.239 23.35 281.459 23.35C286.079 23.35 289.696 24.8433 292.309 27.83C294.923 30.77 296.229 34.83 296.229 40.01C296.229 41.4567 295.413 42.18 293.779 42.18H270.609C270.796 46.0533 271.916 49.0167 273.969 51.07C276.023 53.0767 278.869 54.08 282.509 54.08C284.049 54.08 285.613 53.8933 287.199 53.52C288.786 53.1 290.326 52.3767 291.819 51.35C292.893 50.65 293.779 50.51 294.479 50.93C295.226 51.35 295.599 52.0033 295.599 52.89C295.646 53.73 295.179 54.4767 294.199 55.13C292.659 56.25 290.816 57.1133 288.669 57.72C286.569 58.3267 284.516 58.63 282.509 58.63ZM281.599 27.55C278.379 27.55 275.836 28.5533 273.969 30.56C272.103 32.5667 271.006 35.2033 270.679 38.47H291.329C291.189 35.0167 290.279 32.3333 288.599 30.42C286.966 28.5067 284.633 27.55 281.599 27.55ZM319.765 58.63C314.399 58.63 310.152 57.0667 307.025 53.94C303.899 50.7667 302.335 46.4733 302.335 41.06C302.335 37.56 303.035 34.48 304.435 31.82C305.835 29.1133 307.749 27.0367 310.175 25.59C312.649 24.0967 315.495 23.35 318.715 23.35C323.335 23.35 326.952 24.8433 329.565 27.83C332.179 30.77 333.485 34.83 333.485 40.01C333.485 41.4567 332.669 42.18 331.035 42.18H307.865C308.052 46.0533 309.172 49.0167 311.225 51.07C313.279 53.0767 316.125 54.08 319.765 54.08C321.305 54.08 322.869 53.8933 324.455 53.52C326.042 53.1 327.582 52.3767 329.075 51.35C330.149 50.65 331.035 50.51 331.735 50.93C332.482 51.35 332.855 52.0033 332.855 52.89C332.902 53.73 332.435 54.4767 331.455 55.13C329.915 56.25 328.072 57.1133 325.925 57.72C323.825 58.3267 321.772 58.63 319.765 58.63ZM318.855 27.55C315.635 27.55 313.092 28.5533 311.225 30.56C309.359 32.5667 308.262 35.2033 307.935 38.47H328.585C328.445 35.0167 327.535 32.3333 325.855 30.42C324.222 28.5067 321.889 27.55 318.855 27.55ZM354.641 58.63C351.608 58.63 348.948 57.9067 346.661 56.46C344.421 55.0133 342.671 52.9833 341.411 50.37C340.198 47.71 339.591 44.5833 339.591 40.99C339.591 37.35 340.198 34.2233 341.411 31.61C342.671 28.95 344.421 26.92 346.661 25.52C348.948 24.0733 351.608 23.35 354.641 23.35C357.301 23.35 359.634 23.9333 361.641 25.1C363.694 26.2667 365.211 27.8767 366.191 29.93V11.03C366.191 9.11667 367.148 8.16 369.061 8.16C370.928 8.16 371.861 9.11667 371.861 11.03V55.55C371.861 57.51 370.928 58.49 369.061 58.49C367.194 58.49 366.261 57.51 366.261 55.55V51.91C365.234 54.01 363.694 55.6667 361.641 56.88C359.634 58.0467 357.301 58.63 354.641 58.63ZM355.831 54.08C359.004 54.08 361.548 52.96 363.461 50.72C365.374 48.4333 366.331 45.19 366.331 40.99C366.331 36.7433 365.374 33.5 363.461 31.26C361.548 29.02 359.004 27.9 355.831 27.9C352.611 27.9 350.044 29.02 348.131 31.26C346.264 33.5 345.331 36.7433 345.331 40.99C345.331 45.19 346.264 48.4333 348.131 50.72C350.044 52.96 352.611 54.08 355.831 54.08Z" fill="#131212"/>
<path d="M58.0083 26.7035C59.03 23.9003 59.325 21.2272 58.5911 18.8283C58.253 18.8592 57.9023 18.8752 57.5432 18.8752C46.7891 18.8752 27.782 5.13973 26.3436 3C20.4163 11.7712 7.99275 18.5147 2.37737 26.0773C0.105174 29.1376 -1.03092 31.4149 1.22972 34.9157L24.9061 65.8203C25.974 67.2891 28.0666 67.4085 29.5565 66.0539C29.5565 66.0539 48.9731 40.7429 63 32.9115C61.9458 30.8197 60.1913 28.7323 58.0083 26.7035ZM24.4935 59.2709L24.3948 59.3403L24.3055 59.4192C23.9436 59.749 23.6221 60.1218 23.3479 60.5296L2.83307 33.7531C1.35572 31.4309 1.77467 30.2085 3.94921 27.2816C6.41566 23.9611 10.3573 20.7376 14.5311 17.3253C18.8697 13.7776 23.3385 10.1253 26.6208 5.9696C32.0387 10.4987 47.1933 20.4987 56.9993 20.8645C58.1753 32.5947 34.2332 52.3696 24.4935 59.2709Z" fill="#FF3E30"/>
<path d="M18.8917 15.9685L45.3569 37.0352L46.2998 36.1776L19.5805 15.3413L18.8917 15.9685Z" fill="#FF3E30"/>
<path d="M27.5164 27.1824L16.6846 17.9749C16.6846 17.9749 12.9151 20.4197 8.34975 25.7819L17.9593 35.8747L27.5164 27.1824Z" fill="#FF3E30"/>
<path d="M3.78541 30.7973L24.2268 56.2491L28.0015 52.8176L6.20776 27.5045C6.20776 27.5045 4.30831 28.5488 3.78541 30.7973Z" fill="#FF3E30"/>
<path d="M26.6901 32.2565L38.5645 43.2112L42.3371 39.7797L29.9734 29.2709L26.6901 32.2565Z" fill="#FF3E30"/>
<path d="M20.1234 38.2288L31.0192 50.0731L34.7908 46.6427L23.4067 35.2432L20.1234 38.2288Z" fill="#FF3E30"/>
<path d="M27.1489 12.3397L25.5477 16.9072L26.5515 17.6496L31.6492 13.0128L30.6517 12.3749L27.1394 15.5696L28.6924 11.1173L27.6508 10.4496L22.7925 14.8677L23.6629 15.5109L27.1489 12.3397Z" fill="#FF3E30"/>
<path d="M31.5116 21.3243L32.4839 20.4379L29.5177 18.296L30.8627 17.0736L33.4972 18.9061L34.4327 18.0539L31.7689 16.2469L32.8798 15.2379L35.8292 17.176L36.7868 16.3067L32.7086 13.6912L27.5447 18.3877L31.5116 21.3243Z" fill="#FF3E30"/>
<path d="M34.6711 23.6624L38.702 21.1824L40.0219 20.3333L39.1462 21.4832L36.5527 25.0576L37.8053 25.9845L45.5627 21.9323L44.0906 20.9883L39.8371 23.4608L38.7514 24.1285L39.4801 23.1547L42.0011 19.6485L40.5857 18.7419L36.6535 21.2176L35.6087 21.8885L36.328 20.9595L38.7094 17.5387L37.3822 16.6875L33.5381 22.824L34.6711 23.6624Z" fill="#FF3E30"/>
<path d="M49.2513 24.0187C48.2969 23.4096 47.4054 23.1184 46.5717 23.1355C45.7443 23.1536 45.066 23.4064 44.5316 23.8928C43.9446 24.4261 43.7473 24.9797 43.9405 25.5536C44.0538 25.8981 44.4151 26.3963 45.0314 27.0555L45.6687 27.736C46.0488 28.1371 46.2935 28.4656 46.4006 28.7173C46.5056 28.9723 46.4541 29.1952 46.2473 29.3829C45.8934 29.704 45.4325 29.7648 44.8665 29.5685C44.5146 29.433 44.1831 29.2481 43.8817 29.0192C43.2832 28.5861 42.9923 28.1691 42.9997 27.7669C43.0039 27.5472 43.1225 27.2955 43.3546 27.0117L41.978 26.0368C41.3575 26.6011 41.1223 27.2304 41.2777 27.9291C41.4341 28.6341 41.9665 29.3296 42.8905 30.0144C43.8113 30.7003 44.7279 31.0672 45.6288 31.1077C46.5392 31.1472 47.2889 30.904 47.8664 30.376C48.4334 29.8619 48.635 29.3093 48.4733 28.7216C48.3704 28.3451 48.0816 27.9067 47.6154 27.4075L46.5707 26.2875C46.1727 25.8651 45.9354 25.5717 45.8546 25.4043C45.7286 25.1493 45.7737 24.9243 45.9911 24.728C46.2273 24.5125 46.5297 24.4251 46.8993 24.4624C47.2742 24.4997 47.6648 24.6523 48.0732 24.9189C48.4439 25.1621 48.7053 25.4139 48.8513 25.6741C49.077 26.0667 49.014 26.4453 48.6675 26.8048L50.2184 27.8427C50.8631 27.2112 51.0647 26.5424 50.8242 25.8395C50.589 25.1429 50.063 24.5349 49.2513 24.0187Z" fill="#FF3E30"/>
</svg>
